<?xml version="1.0" encoding="utf-8"?>
<!-- Generator: Adobe Illustrator 18.0.0, SVG Export Plug-In . SVG Version: 6.00 Build 0)  -->
<!DOCTYPE svg PUBLIC "-//W3C//DTD SVG 1.1//EN" "http://www.w3.org/Graphics/SVG/1.1/DTD/svg11.dtd">
<svg version="1.1" xmlns="http://www.w3.org/2000/svg" xmlns:xlink="http://www.w3.org/1999/xlink" x="0px" y="0px"
	 viewBox="0 0 2272 1872" enable-background="new 0 0 2272 1872" xml:space="preserve">
<g id="Background">
	<rect x="-14.7" y="-13.7" fill="#334F5C" width="2303.7" height="1899.7"/>
</g>
<g id="Object">
	<ellipse fill="#436473" cx="337" cy="515.1" rx="226.5" ry="249"/>
	<ellipse fill="#436473" cx="337" cy="1328.2" rx="226.5" ry="249"/>
	<ellipse fill="#436473" cx="877" cy="1328.2" rx="226.5" ry="249"/>
	<ellipse fill="#436473" cx="1421" cy="1328.2" rx="226.5" ry="249"/>
	<ellipse fill="#436473" cx="1936.3" cy="1328.2" rx="226.5" ry="249"/>
	<ellipse fill="#436473" cx="873" cy="515.1" rx="226.5" ry="249"/>
	<ellipse fill="#436473" cx="1395.5" cy="515.1" rx="226.5" ry="249"/>
	<ellipse fill="#436473" cx="1915" cy="515.1" rx="226.5" ry="249"/>
	<g>
		<path fill="#FFFFFF" d="M379.3,460.5c-10.3-10.8-24.2-16.7-39.5-16.7c-0.5,0-53.7,0.6-60.7,53.8c-9.8,133.8,22.4,221.5,22.8,222.3
			c0.4,1,1.3,1.5,2.2,1.5c0.3,0,0.6,0,0.8-0.2c1.2-0.5,1.9-1.8,1.4-3.1c-0.3-0.9-32.2-87.6-22.5-220.2c6.4-48.8,53.9-49.5,56.4-49.5
			c13.6,0,26.3,5.4,35.6,15.3c9.5,9.9,14.3,23,13.6,36.7c-2.3,46.6,0,120.7,23.4,208.8c0.3,1.3,1.6,2,2.9,1.7c1.3-0.3,2-1.6,1.7-2.9
			c-23.2-87.5-25.4-161-23.2-207.3C395,485.6,389.6,471.3,379.3,460.5z"/>
		<path fill="#FFFFFF" d="M390.7,716.4c1.2-0.6,1.7-2,1.2-3.2c-29.6-63.8-26.6-159.8-22.1-211.3c0.7-8.4-2.1-16.8-7.8-23.1
			c-5.7-6.2-13.9-9.8-22.5-9.7c-39.2,6.2-37.1,41.2-33.2,104.7c0.4,5.9,0.7,12,1.1,18.4C312,675,331,719.5,331.2,719.9
			c0.4,0.9,1.3,1.4,2.2,1.4c0.3,0,0.6-0.1,1-0.2c1.2-0.5,1.8-1.9,1.2-3.1c-0.2-0.4-18.9-44.3-23.6-126.1c-0.4-6.4-0.7-12.5-1.1-18.4
			c-3.8-62.7-5.7-94.2,28.8-99.7c7.2,0,13.8,2.9,18.6,8.2c4.8,5.2,7.2,12.3,6.6,19.4c-4.5,52-7.5,148.9,22.6,213.7
			C388.1,716.4,389.6,716.9,390.7,716.4z"/>
		<path fill="#FFFFFF" d="M337,491.5c-1.3-0.2-2.5,0.9-2.6,2.2c-10.4,134.4,25,228.4,25.3,229.3c0.4,0.9,1.3,1.5,2.2,1.5
			c0.3,0,0.6-0.1,0.9-0.2c1.2-0.5,1.8-1.8,1.4-3.1c-0.4-0.9-35.4-93.9-25-227.2C339.3,492.8,338.3,491.6,337,491.5z"/>
		<path fill="#FFFFFF" d="M531.7,546.4v-52.7c0-105.9-86.1-192-192-192c-111.5,0-202.3,90.7-202.3,202.3v98.4c0,1.3,1.1,2.4,2.4,2.4
			c1.3,0,2.4-1.1,2.4-2.4V504c0-108.9,88.6-197.5,197.5-197.5c103.2,0,187.2,84,187.2,187.2v52c-4.8-0.7-9.7-1.2-14.7-1.2
			c-2.8,0-5.6,0.2-8.3,0.4V498c0-90.5-73.7-164.2-164.2-164.2h-3c-92.2,0-167.2,75-167.2,167.2v150.5c0,1.3,1.1,2.4,2.4,2.4
			c1.3,0,2.4-1.1,2.4-2.4V501c0-89.6,72.9-162.4,162.4-162.4h3c87.9,0,159.5,71.5,159.5,159.5v47.4c-7.4,1-14.6,2.9-21.4,5.5v-51.7
			c0-76.1-61.9-138-138.2-138l-21.5,1.4c-74.9,5-127.1,70.7-127.1,159.8c0.1,88.2,14.2,158.6,14.3,159.3c0.2,1.1,1.2,1.9,2.3,1.9
			c0.2,0,0.3,0,0.5,0c1.3-0.3,2.1-1.5,1.9-2.8c-0.1-0.7-14.1-70.7-14.2-158.4c-0.1-86.5,50.3-150.3,122.6-155.1l21.4-1.4
			c73.5,0,133.3,59.8,133.3,133.3v53.7c-7.7,3.5-14.9,7.9-21.4,13.1v-64.4c0-61.7-50.2-111.8-112-111.8c0,0,0,0,0,0l-14,1
			c-71.8,2.6-104.7,66.7-104.8,125.1c-0.2,100.8,16.5,185.3,16.7,186.1c0.2,1.1,1.2,1.9,2.3,1.9c0.2,0,0.3,0,0.5,0
			c1.3-0.3,2.1-1.5,1.9-2.8c-0.2-0.8-16.8-84.8-16.6-185.2c0.1-56.2,31.5-117.9,100.3-120.4l13.9-1c59.1,0,107.1,48,107.1,107.1
			v68.7c-10,9.3-18.1,20.5-23.4,33.3c-0.7-22.5-1.8-61.7-2.8-107.5c-0.9-43.7-37.2-79.3-80.8-79.3c-0.8,0.1-85.7-1.4-90.5,87.9
			c-4.7,87.4,22,208.9,22.3,210.1c0.2,1.1,1.2,1.9,2.3,1.9c0.2,0,0.3,0,0.5-0.1c1.3-0.3,2.1-1.6,1.8-2.8
			c-0.3-1.2-26.8-122.1-22.2-208.8c4.6-84.7,82.3-83.5,85.7-83.4c41.2,0,75.3,33.5,76.2,74.6c1.2,56.6,2.6,103.2,3.2,120.5
			c0,0,0,0,0,0.1c-2,7.7-3.2,15.8-3.2,24.1c0,53.1,43.2,96.4,96.4,96.4c53.1,0,96.4-43.2,96.4-96.4
			C608.7,594.3,575.6,555.4,531.7,546.4z M512.3,732.5c-50.5,0-91.6-41.1-91.6-91.6c0-50.5,41.1-91.6,91.6-91.6
			c50.5,0,91.6,41.1,91.6,91.6C603.9,691.4,562.8,732.5,512.3,732.5z"/>
		<path fill="#FFFFFF" d="M554.5,639.4h-37.1v-37.1c0-1.3-1.1-2.4-2.4-2.4s-2.4,1.1-2.4,2.4v37.1h-37.1c-1.3,0-2.4,1.1-2.4,2.4
			s1.1,2.4,2.4,2.4h37.1v37.1c0,1.3,1.1,2.4,2.4,2.4s2.4-1.1,2.4-2.4v-37.1h37.1c1.3,0,2.4-1.1,2.4-2.4S555.9,639.4,554.5,639.4z"/>
	</g>
	<g>
		<path fill="#FFFFFF" d="M379.3,1264.8c-10.3-10.8-24.2-16.7-39.5-16.7c-0.5,0-53.7,0.6-60.7,53.8
			c-9.8,133.8,22.4,221.5,22.8,222.3c0.4,1,1.3,1.5,2.2,1.5c0.3,0,0.6,0,0.8-0.2c1.2-0.5,1.9-1.8,1.4-3.1
			c-0.3-0.9-32.2-87.6-22.5-220.2c6.4-48.8,53.9-49.5,56.4-49.5c13.6,0,26.3,5.4,35.6,15.3c9.5,9.9,14.3,23,13.6,36.7
			c-2.3,46.6,0,120.7,23.4,208.8c0.3,1.3,1.6,2,2.9,1.7c1.3-0.3,2-1.6,1.7-2.9c-23.2-87.5-25.4-161-23.2-207.3
			C395,1290,389.6,1275.7,379.3,1264.8z"/>
		<path fill="#FFFFFF" d="M390.7,1520.7c1.2-0.6,1.7-2,1.2-3.2c-29.6-63.8-26.6-159.8-22.1-211.3c0.7-8.4-2.1-16.8-7.8-23.1
			c-5.7-6.2-13.7-9.7-22.4-9.7c0,0-0.1,0-0.1,0c-39.2,6.2-37.1,41.2-33.2,104.7c0.4,5.9,0.7,12,1.1,18.4
			c4.7,82.8,23.7,127.3,23.9,127.7c0.4,0.9,1.3,1.4,2.2,1.4c0.3,0,0.6-0.1,1-0.2c1.2-0.5,1.8-1.9,1.2-3.1
			c-0.2-0.4-18.9-44.3-23.6-126.1c-0.4-6.4-0.7-12.5-1.1-18.4c-3.8-62.7-5.7-94.2,28.8-99.7c7.2,0,13.8,2.9,18.6,8.2
			c4.8,5.2,7.2,12.3,6.6,19.4c-4.5,52-7.5,148.9,22.6,213.7C388.1,1520.7,389.6,1521.2,390.7,1520.7z"/>
		<path fill="#FFFFFF" d="M337,1295.8c-1.3-0.1-2.5,0.9-2.6,2.2c-10.4,134.4,25,228.4,25.3,229.3c0.4,0.9,1.3,1.5,2.2,1.5
			c0.3,0,0.6-0.1,0.9-0.2c1.2-0.5,1.8-1.8,1.4-3.1c-0.4-0.9-35.4-93.9-25-227.2C339.3,1297.1,338.3,1295.9,337,1295.8z"/>
		<path fill="#FFFFFF" d="M531.7,1350.7V1298c0-105.9-86.1-192-192-192c-111.5,0-202.3,90.7-202.3,202.3v98.4c0,1.3,1.1,2.4,2.4,2.4
			c1.3,0,2.4-1.1,2.4-2.4v-98.4c0-108.9,88.6-197.5,197.5-197.5c103.2,0,187.2,84,187.2,187.2v52c-4.8-0.7-9.7-1.2-14.7-1.2
			c-2.8,0-5.6,0.2-8.3,0.4v-46.8c0-90.5-73.7-164.2-164.2-164.2h-3c-92.2,0-167.2,75-167.2,167.2v150.5c0,1.3,1.1,2.4,2.4,2.4
			c1.3,0,2.4-1.1,2.4-2.4v-150.5c0-89.6,72.9-162.4,162.4-162.4h3c87.9,0,159.5,71.5,159.5,159.4v47.4c-7.4,1-14.6,2.9-21.4,5.5
			v-51.7c0-76.1-61.9-138-138.2-138l-21.5,1.4c-74.9,5-127.1,70.7-127.1,159.8c0.1,88.2,14.2,158.6,14.3,159.3
			c0.2,1.1,1.2,1.9,2.3,1.9c0.2,0,0.3,0,0.5,0c1.3-0.3,2.1-1.5,1.9-2.8c-0.1-0.7-14.1-70.7-14.2-158.4
			c-0.1-86.5,50.3-150.3,122.6-155.1l21.4-1.4c73.5,0,133.3,59.8,133.3,133.3v53.7c-7.7,3.5-14.9,7.9-21.4,13.1v-64.4
			c0-61.7-50.2-111.8-112-111.8c0,0,0,0,0,0l-14,1c-71.8,2.6-104.7,66.7-104.8,125.1c-0.2,100.8,16.5,185.3,16.7,186.1
			c0.2,1.1,1.2,1.9,2.3,1.9c0.2,0,0.3,0,0.5,0c1.3-0.3,2.1-1.5,1.9-2.8c-0.2-0.8-16.8-84.8-16.6-185.2
			c0.1-56.2,31.5-117.9,100.3-120.4l13.9-1c59.1,0,107.1,48,107.1,107.1v68.7c-10,9.3-18.1,20.5-23.4,33.3
			c-0.7-22.5-1.8-61.7-2.8-107.5c-0.9-43.7-37.2-79.3-80.8-79.3c-0.8,0-85.7-1.4-90.5,87.9c-4.7,87.4,22,208.9,22.3,210.1
			c0.2,1.1,1.2,1.9,2.3,1.9c0.2,0,0.3,0,0.5-0.1c1.3-0.3,2.1-1.6,1.8-2.8c-0.3-1.2-26.8-122.1-22.2-208.8
			c4.6-84.7,82.3-83.6,85.7-83.4c41.2,0,75.3,33.5,76.2,74.6c1.2,56.6,2.6,103.2,3.2,120.5c0,0,0,0,0,0.1c-2,7.7-3.2,15.8-3.2,24.1
			c0,53.1,43.2,96.4,96.4,96.4c53.1,0,96.4-43.2,96.4-96.4C608.7,1398.7,575.6,1359.8,531.7,1350.7z M512.3,1536.8
			c-50.5,0-91.6-41.1-91.6-91.6c0-50.5,41.1-91.6,91.6-91.6c50.5,0,91.6,41.1,91.6,91.6C603.9,1495.7,562.8,1536.8,512.3,1536.8z"/>
		<path fill="#FFFFFF" d="M544.7,1420.3c-0.9-0.9-2.4-0.9-3.4,0l-26.2,26.2l-26.2-26.2c-0.9-0.9-2.4-0.9-3.4,0
			c-0.9,0.9-0.9,2.4,0,3.4l26.2,26.2l-26.2,26.2c-0.9,0.9-0.9,2.4,0,3.4c0.5,0.5,1.1,0.7,1.7,0.7s1.2-0.2,1.7-0.7l26.2-26.2
			l26.2,26.2c0.5,0.5,1.1,0.7,1.7,0.7c0.6,0,1.2-0.2,1.7-0.7c0.9-0.9,0.9-2.4,0-3.4l-26.2-26.2l26.2-26.2
			C545.6,1422.8,545.6,1421.3,544.7,1420.3z"/>
	</g>
	<g>
		<path fill="#FFFFFF" d="M920.3,460.5c-10.3-10.8-24.2-16.7-39.5-16.7c-0.5,0-53.7,0.6-60.7,53.8c-9.8,133.8,22.4,221.5,22.8,222.3
			c0.4,1,1.3,1.5,2.2,1.5c0.3,0,0.6,0,0.8-0.2c1.2-0.5,1.9-1.8,1.4-3.1c-0.3-0.9-32.2-87.6-22.5-220.2c6.4-48.8,53.9-49.5,56.4-49.5
			c13.6,0,26.3,5.4,35.6,15.3c9.5,9.9,14.3,23,13.6,36.7c-2.3,46.6,0,120.7,23.4,208.8c0.3,1.3,1.6,2,2.9,1.7c1.3-0.3,2-1.6,1.7-2.9
			c-23.2-87.5-25.4-161-23.2-207.3C936,485.6,930.6,471.3,920.3,460.5z"/>
		<path fill="#FFFFFF" d="M931.7,716.4c1.2-0.6,1.7-2,1.2-3.2c-29.6-63.8-26.6-159.8-22.1-211.3c0.7-8.4-2.1-16.8-7.8-23.1
			c-5.7-6.2-13.7-9.8-22.5-9.7c-39.2,6.2-37.1,41.2-33.2,104.7c0.4,5.9,0.7,12,1.1,18.4C853,675,872,719.5,872.2,719.9
			c0.4,0.9,1.3,1.4,2.2,1.4c0.3,0,0.6-0.1,1-0.2c1.2-0.5,1.8-1.9,1.2-3.1c-0.2-0.4-18.9-44.3-23.6-126.1c-0.4-6.4-0.7-12.5-1.1-18.4
			c-3.8-62.7-5.7-94.2,28.8-99.7c7.2,0,13.8,2.9,18.6,8.2c4.8,5.2,7.2,12.3,6.6,19.4c-4.5,52-7.5,148.9,22.6,213.7
			C929.1,716.4,930.6,716.9,931.7,716.4z"/>
		<path fill="#FFFFFF" d="M878,491.5c-1.3-0.2-2.5,0.9-2.6,2.2c-10.4,134.4,25,228.4,25.3,229.3c0.4,0.9,1.3,1.5,2.2,1.5
			c0.3,0,0.6-0.1,0.9-0.2c1.2-0.5,1.8-1.8,1.4-3.1c-0.4-0.9-35.4-93.9-25-227.2C880.3,492.8,879.3,491.6,878,491.5z"/>
		<path fill="#FFFFFF" d="M1072.7,546.4v-52.7c0-105.9-86.1-192-192-192c-111.5,0-202.3,90.7-202.3,202.3v98.4
			c0,1.3,1.1,2.4,2.4,2.4s2.4-1.1,2.4-2.4V504c0-108.9,88.6-197.5,197.5-197.5c103.2,0,187.2,84,187.2,187.2v52
			c-4.8-0.7-9.7-1.2-14.7-1.2c-2.8,0-5.6,0.2-8.3,0.4V498c0-90.5-73.7-164.2-164.2-164.2h-3c-92.2,0-167.2,75-167.2,167.2v150.5
			c0,1.3,1.1,2.4,2.4,2.4s2.4-1.1,2.4-2.4V501c0-89.6,72.9-162.4,162.4-162.4h3c87.9,0,159.5,71.5,159.5,159.5v47.4
			c-7.4,1-14.6,2.9-21.4,5.5v-51.7c0-76.1-61.9-138-138.2-138l-21.5,1.4c-74.9,5-127.1,70.7-127.1,159.8
			c0.1,88.2,14.2,158.6,14.3,159.3c0.2,1.1,1.2,1.9,2.3,1.9c0.2,0,0.3,0,0.5,0c1.3-0.3,2.1-1.5,1.9-2.8
			c-0.1-0.7-14.1-70.7-14.2-158.4c-0.1-86.5,50.3-150.3,122.6-155.1l21.4-1.4c73.5,0,133.3,59.8,133.3,133.3v53.7
			c-7.7,3.5-14.9,7.9-21.4,13.1v-64.4c0-61.7-50.2-111.8-112-111.8c0,0,0,0,0,0l-14,1c-71.8,2.6-104.7,66.7-104.8,125.1
			c-0.2,100.8,16.5,185.3,16.7,186.1c0.2,1.1,1.2,1.9,2.3,1.9c0.2,0,0.3,0,0.5,0c1.3-0.3,2.1-1.5,1.9-2.8
			c-0.2-0.8-16.8-84.8-16.6-185.2c0.1-56.2,31.5-117.9,100.3-120.4l13.9-1c59.1,0,107.1,48,107.1,107.1v68.7
			c-10,9.3-18.1,20.5-23.4,33.3c-0.7-22.5-1.8-61.7-2.8-107.5c-0.9-43.7-37.2-79.3-80.8-79.3c-0.9,0.1-85.7-1.4-90.5,87.9
			c-4.7,87.4,22,208.9,22.3,210.1c0.2,1.1,1.2,1.9,2.3,1.9c0.2,0,0.3,0,0.5-0.1c1.3-0.3,2.1-1.6,1.8-2.8
			c-0.3-1.2-26.8-122.1-22.2-208.8c4.6-84.7,82.3-83.5,85.7-83.4c41.2,0,75.3,33.5,76.2,74.6c1.2,56.6,2.6,103.2,3.2,120.5
			c0,0,0,0,0,0.1c-2,7.7-3.2,15.8-3.2,24.1c0,53.1,43.2,96.4,96.4,96.4s96.4-43.2,96.4-96.4C1149.7,594.3,1116.6,555.4,1072.7,546.4
			z M1053.3,732.5c-50.5,0-91.6-41.1-91.6-91.6c0-50.5,41.1-91.6,91.6-91.6c50.5,0,91.6,41.1,91.6,91.6
			C1144.9,691.4,1103.8,732.5,1053.3,732.5z"/>
		<path fill="#FFFFFF" d="M1092.8,639.4h-78.9c-1.3,0-2.4,1.1-2.4,2.4s1.1,2.4,2.4,2.4h78.9c1.3,0,2.4-1.1,2.4-2.4
			S1094.1,639.4,1092.8,639.4z"/>
	</g>
	<g>
		<path fill="#FFFFFF" d="M1196.5,604.7c1.3,0,2.4-1.1,2.4-2.4V504c0-108.9,88.6-197.5,197.5-197.5c103.2,0,187.2,84,187.2,187.2v52
			c-4.8-0.7-9.7-1.2-14.7-1.2c-2.8,0-5.6,0.2-8.3,0.4V498c0-90.5-73.7-164.2-164.2-164.2h-3c-92.2,0-167.2,75-167.2,167.2v150.5
			c0,1.3,1.1,2.4,2.4,2.4c1.3,0,2.4-1.1,2.4-2.4V501c0-89.6,72.9-162.4,162.4-162.4h3c87.9,0,159.5,71.5,159.5,159.5v47.4
			c-7.4,1-14.6,2.9-21.4,5.5v-51.7c0-76.1-61.9-138-138.2-138l-21.5,1.4c-74.9,5-127.1,70.7-127.1,159.8
			c0.1,88.2,14.2,158.6,14.3,159.3c0.2,1.1,1.2,1.9,2.3,1.9c0.2,0,0.3,0,0.5,0c1.3-0.3,2.1-1.5,1.9-2.8
			c-0.1-0.7-14.1-70.7-14.2-158.4c-0.1-86.5,50.3-150.3,122.6-155.1l21.4-1.4c73.5,0,133.3,59.8,133.3,133.3v53.7
			c-7.7,3.5-14.9,7.9-21.4,13.1v-64.4c0-61.7-50.2-111.8-112-111.8c0,0,0,0,0,0l-14,1c-71.8,2.6-104.7,66.7-104.8,125.1
			c-0.2,100.8,16.5,185.3,16.7,186.1c0.2,1.1,1.2,1.9,2.3,1.9c0.2,0,0.3,0,0.5,0c1.3-0.3,2.1-1.5,1.9-2.8
			c-0.2-0.8-16.8-84.8-16.6-185.2c0.1-56.2,31.5-117.9,100.3-120.4l13.9-1c59.1,0,107.1,48,107.1,107.1v68.7
			c-10,9.3-18.1,20.5-23.4,33.3c-0.7-22.5-1.8-61.7-2.8-107.5c-0.9-43.7-37.2-79.3-80.8-79.3c-0.8,0.1-85.7-1.4-90.5,87.9
			c-4.7,87.4,22,208.9,22.3,210.1c0.2,1.1,1.2,1.9,2.3,1.9c0.2,0,0.3,0,0.5-0.1c1.3-0.3,2.1-1.6,1.8-2.8
			c-0.3-1.2-26.8-122.1-22.2-208.8c4.6-84.7,82.3-83.5,85.7-83.4c41.2,0,75.3,33.5,76.2,74.6c1.2,56.6,2.6,103.2,3.2,120.5
			c0,0,0,0,0,0.1c-2,7.7-3.2,15.8-3.2,24.1c0,53.1,43.2,96.4,96.4,96.4c53.1,0,96.4-43.2,96.4-96.4c0-46.5-33.1-85.4-77-94.4v-52.7
			c0-105.9-86.1-192-192-192c-111.5,0-202.3,90.7-202.3,202.3v98.4C1194.2,603.7,1195.2,604.7,1196.5,604.7z M1660.6,640.8
			c0,50.5-41.1,91.6-91.6,91.6c-50.5,0-91.6-41.1-91.6-91.6c0-50.5,41.1-91.6,91.6-91.6C1619.5,549.2,1660.6,590.3,1660.6,640.8z"/>
		<path fill="#FFFFFF" d="M1472.4,711c1.3-0.3,2-1.6,1.7-2.9c-23.2-87.5-25.4-161-23.2-207.3c0.7-15.1-4.6-29.4-14.9-40.3
			c-10.3-10.8-24.2-16.7-39.5-16.7c-0.5,0-53.7,0.6-60.7,53.8c-9.8,133.8,22.4,221.5,22.8,222.3c0.4,1,1.3,1.5,2.2,1.5
			c0.3,0,0.6,0,0.8-0.2c1.2-0.5,1.9-1.8,1.4-3.1c-0.3-0.9-32.2-87.6-22.5-220.2c6.4-48.8,53.9-49.5,56.4-49.5
			c13.6,0,26.3,5.4,35.6,15.3c9.5,9.9,14.3,23,13.6,36.7c-2.3,46.6,0,120.7,23.4,208.8C1469.8,710.5,1471.1,711.3,1472.4,711z"/>
		<path fill="#FFFFFF" d="M1447.4,716.4c1.2-0.6,1.7-2,1.2-3.2c-29.6-63.8-26.6-159.8-22.1-211.3c0.7-8.4-2.1-16.8-7.8-23.1
			c-5.7-6.2-13.7-9.7-22.4-9.7c0,0-0.1,0-0.1,0c-39.2,6.2-37.1,41.2-33.2,104.7c0.4,5.9,0.7,12,1.1,18.4
			c4.7,82.8,23.7,127.3,23.9,127.7c0.4,0.9,1.3,1.4,2.2,1.4c0.3,0,0.6-0.1,1-0.2c1.2-0.5,1.8-1.9,1.2-3.1
			c-0.2-0.4-18.9-44.3-23.6-126.1c-0.4-6.4-0.7-12.5-1.1-18.4c-3.8-62.7-5.7-94.2,28.8-99.7c7.2,0,13.8,2.9,18.6,8.2
			c4.8,5.2,7.2,12.3,6.6,19.4c-4.5,52-7.5,148.9,22.6,213.7C1444.8,716.4,1446.3,716.9,1447.4,716.4z"/>
		<path fill="#FFFFFF" d="M1393.7,491.5c-1.3-0.2-2.5,0.9-2.6,2.2c-10.4,134.4,25,228.4,25.3,229.3c0.4,0.9,1.3,1.5,2.2,1.5
			c0.3,0,0.6-0.1,0.9-0.2c1.2-0.5,1.8-1.8,1.4-3.1c-0.4-0.9-35.4-93.9-25-227.2C1396,492.8,1395,491.6,1393.7,491.5z"/>
		<path fill="#FFFFFF" d="M1550,594.2c-8.3,3.6-14.6,10.2-17.9,18.6c-3.3,8.4-3.2,17.5,0.4,25.8c5.4,12.3,17.5,20.3,30.9,20.3
			c3.8,0,7.6-0.7,11.2-2l13.9,31.9c0.4,0.9,1.3,1.4,2.2,1.4c0.3,0,0.6-0.1,0.9-0.2c1.2-0.5,1.8-1.9,1.2-3.1L1579,655
			c15.5-8.1,22.4-27,15.4-43.3c-5.4-12.3-17.5-20.3-30.9-20.3C1558.8,591.4,1554.3,592.3,1550,594.2z M1590,613.6
			c6.4,14.6-0.4,31.7-15,38.1c-3.7,1.6-7.5,2.4-11.5,2.4c-11.5,0-22-6.8-26.6-17.4c-3.1-7.1-3.2-15-0.4-22.2
			c2.8-7.2,8.3-12.9,15.4-15.9c3.7-1.6,7.5-2.4,11.5-2.4C1575,596.2,1585.4,603,1590,613.6z"/>
	</g>
	<g>
		<path fill="#FFFFFF" d="M920.3,1264.8c-10.3-10.8-24.2-16.7-39.5-16.7c-0.5,0-53.7,0.6-60.7,53.8
			c-9.8,133.8,22.4,221.5,22.8,222.3c0.4,1,1.3,1.5,2.2,1.5c0.3,0,0.6,0,0.8-0.2c1.2-0.5,1.9-1.8,1.4-3.1
			c-0.3-0.9-32.2-87.6-22.5-220.2c6.4-48.8,53.9-49.5,56.4-49.5c13.6,0,26.3,5.4,35.6,15.3c9.5,9.9,14.3,23,13.6,36.7
			c-2.3,46.6,0,120.7,23.4,208.8c0.3,1.3,1.6,2,2.9,1.7c1.3-0.3,2-1.6,1.7-2.9c-23.2-87.5-25.4-161-23.2-207.3
			C936,1290,930.6,1275.7,920.3,1264.8z"/>
		<path fill="#FFFFFF" d="M931.7,1520.7c1.2-0.6,1.7-2,1.2-3.2c-29.6-63.8-26.6-159.8-22.1-211.3c0.7-8.4-2.1-16.8-7.8-23.1
			c-5.7-6.2-13.7-9.7-22.4-9.7c0,0-0.1,0-0.1,0c-39.2,6.2-37.1,41.2-33.2,104.7c0.4,5.9,0.7,12,1.1,18.4
			c4.7,82.8,23.7,127.3,23.9,127.7c0.4,0.9,1.3,1.4,2.2,1.4c0.3,0,0.6-0.1,1-0.2c1.2-0.5,1.8-1.9,1.2-3.1
			c-0.2-0.4-18.9-44.3-23.6-126.1c-0.4-6.4-0.7-12.5-1.1-18.4c-3.8-62.7-5.7-94.2,28.8-99.7c7.2,0,13.8,2.9,18.6,8.2
			c4.8,5.2,7.2,12.3,6.6,19.4c-4.5,52-7.5,148.9,22.6,213.7C929.1,1520.7,930.6,1521.2,931.7,1520.7z"/>
		<path fill="#FFFFFF" d="M878,1295.8c-1.3-0.1-2.5,0.9-2.6,2.2c-10.4,134.4,25,228.4,25.3,229.3c0.4,0.9,1.3,1.5,2.2,1.5
			c0.3,0,0.6-0.1,0.9-0.2c1.2-0.5,1.8-1.8,1.4-3.1c-0.4-0.9-35.4-93.9-25-227.2C880.3,1297.1,879.3,1295.9,878,1295.8z"/>
		<path fill="#FFFFFF" d="M1072.7,1350.7V1298c0-105.9-86.1-192-192-192c-111.5,0-202.3,90.7-202.3,202.3v98.4
			c0,1.3,1.1,2.4,2.4,2.4s2.4-1.1,2.4-2.4v-98.4c0-108.9,88.6-197.5,197.5-197.5c103.2,0,187.2,84,187.2,187.2v52
			c-4.8-0.7-9.7-1.2-14.7-1.2c-2.8,0-5.6,0.2-8.3,0.4v-46.8c0-90.5-73.7-164.2-164.2-164.2h-3c-92.2,0-167.2,75-167.2,167.2v150.5
			c0,1.3,1.1,2.4,2.4,2.4s2.4-1.1,2.4-2.4v-150.5c0-89.6,72.9-162.4,162.4-162.4h3c87.9,0,159.5,71.5,159.5,159.4v47.4
			c-7.4,1-14.6,2.9-21.4,5.5v-51.7c0-76.1-61.9-138-138.2-138l-21.5,1.4c-74.9,5-127.1,70.7-127.1,159.8
			c0.1,88.2,14.2,158.6,14.3,159.3c0.2,1.1,1.2,1.9,2.3,1.9c0.2,0,0.3,0,0.5,0c1.3-0.3,2.1-1.5,1.9-2.8
			c-0.1-0.7-14.1-70.7-14.2-158.4c-0.1-86.5,50.3-150.3,122.6-155.1l21.4-1.4c73.5,0,133.3,59.8,133.3,133.3v53.7
			c-7.7,3.5-14.9,7.9-21.4,13.1v-64.4c0-61.7-50.2-111.8-112-111.8c0,0,0,0,0,0l-14,1c-71.8,2.6-104.7,66.7-104.8,125.1
			c-0.2,100.8,16.5,185.3,16.7,186.1c0.2,1.1,1.2,1.9,2.3,1.9c0.2,0,0.3,0,0.5,0c1.3-0.3,2.1-1.5,1.9-2.8
			c-0.2-0.8-16.8-84.8-16.6-185.2c0.1-56.2,31.5-117.9,100.3-120.4l13.9-1c59.1,0,107.1,48,107.1,107.1v68.7
			c-10,9.3-18.1,20.5-23.4,33.3c-0.7-22.5-1.8-61.7-2.8-107.5c-0.9-43.7-37.2-79.3-80.8-79.3c-0.9,0-85.7-1.4-90.5,87.9
			c-4.7,87.4,22,208.9,22.3,210.1c0.2,1.1,1.2,1.9,2.3,1.9c0.2,0,0.3,0,0.5-0.1c1.3-0.3,2.1-1.6,1.8-2.8
			c-0.3-1.2-26.8-122.1-22.2-208.8c4.6-84.7,82.3-83.6,85.7-83.4c41.2,0,75.3,33.5,76.2,74.6c1.2,56.6,2.6,103.2,3.2,120.5
			c0,0,0,0,0,0.1c-2,7.7-3.2,15.8-3.2,24.1c0,53.1,43.2,96.4,96.4,96.4s96.4-43.2,96.4-96.4
			C1149.7,1398.7,1116.6,1359.8,1072.7,1350.7z M1053.3,1536.8c-50.5,0-91.6-41.1-91.6-91.6c0-50.5,41.1-91.6,91.6-91.6
			c50.5,0,91.6,41.1,91.6,91.6C1144.9,1495.7,1103.8,1536.8,1053.3,1536.8z"/>
		<path fill="#FFFFFF" d="M1093.9,1409.4c-1.1-0.7-2.6-0.4-3.3,0.8l-40.6,65l-25.7-22.7c-1-0.9-2.5-0.8-3.4,0.2
			c-0.9,1-0.8,2.5,0.2,3.4l27.8,24.6c0.4,0.4,1,0.6,1.6,0.6c0.1,0,0.2,0,0.3,0c0.7-0.1,1.3-0.5,1.7-1.1l42-67.4
			C1095.4,1411.6,1095.1,1410.1,1093.9,1409.4z"/>
	</g>
	<g>
		<path fill="#FFFFFF" d="M1991.2,1305c0.7-15.1-4.6-29.4-14.9-40.3c-10.3-10.8-24.2-16.7-39.5-16.7c-0.5,0-53.7,0.6-60.7,53.8
			c-9.8,133.8,22.4,221.5,22.8,222.3c0.4,1,1.3,1.5,2.2,1.5c0.3,0,0.6,0,0.8-0.2c1.2-0.5,1.9-1.8,1.4-3.1
			c-0.3-0.9-32.2-87.6-22.5-220.2c6.4-48.8,53.9-49.5,56.4-49.5c13.6,0,26.3,5.4,35.6,15.3c9.5,9.9,14.3,23,13.6,36.7
			c-2.3,46.6,0,120.7,23.4,208.8c0.3,1.3,1.6,2,2.9,1.7c1.3-0.3,2-1.6,1.7-2.9C1991.1,1424.9,1988.9,1351.3,1991.2,1305z"/>
		<path fill="#FFFFFF" d="M1966.7,1306.2c0.7-8.4-2.1-16.8-7.8-23.1c-5.7-6.2-13.7-9.7-22.4-9.7c0,0-0.1,0-0.1,0
			c-39.2,6.2-37.1,41.2-33.2,104.7c0.4,5.9,0.7,12,1.1,18.4c4.7,82.8,23.7,127.3,23.9,127.7c0.4,0.9,1.3,1.4,2.2,1.4
			c0.3,0,0.6-0.1,1-0.2c1.2-0.5,1.8-1.9,1.2-3.1c-0.2-0.4-18.9-44.3-23.6-126.1c-0.4-6.4-0.7-12.5-1.1-18.4
			c-3.8-62.7-5.7-94.2,28.8-99.7c7.2,0,13.8,2.9,18.6,8.2c4.8,5.2,7.2,12.3,6.6,19.4c-4.5,52-7.5,148.9,22.6,213.7
			c0.5,1.2,2,1.7,3.2,1.2c1.2-0.6,1.7-2,1.2-3.2C1959.2,1453.7,1962.3,1357.7,1966.7,1306.2z"/>
		<path fill="#FFFFFF" d="M1936.1,1298.4c0.1-1.3-0.9-2.5-2.2-2.6c-1.3-0.1-2.5,0.9-2.6,2.2c-10.4,134.4,25,228.4,25.3,229.3
			c0.4,0.9,1.3,1.5,2.2,1.5c0.3,0,0.6-0.1,0.9-0.2c1.2-0.5,1.8-1.8,1.4-3.1C1960.8,1524.7,1925.8,1431.7,1936.1,1298.4z"/>
		<path fill="#FFFFFF" d="M2128.7,1350.7V1298c0-105.9-86.1-192-192-192c-111.5,0-202.3,90.7-202.3,202.3v98.4
			c0,1.3,1.1,2.4,2.4,2.4s2.4-1.1,2.4-2.4v-98.4c0-108.9,88.6-197.5,197.5-197.5c103.2,0,187.2,84,187.2,187.2v52
			c-4.8-0.7-9.7-1.2-14.7-1.2c-2.8,0-5.6,0.2-8.3,0.4v-46.8c0-90.5-73.7-164.2-164.2-164.2h-3c-92.2,0-167.2,75-167.2,167.2v150.5
			c0,1.3,1.1,2.4,2.4,2.4s2.4-1.1,2.4-2.4v-150.5c0-89.6,72.9-162.4,162.4-162.4h3c87.9,0,159.5,71.5,159.5,159.4v47.4
			c-7.4,1-14.6,2.9-21.4,5.5v-51.7c0-76.1-61.9-138-138.2-138l-21.5,1.4c-74.9,5-127.1,70.7-127.1,159.8
			c0.1,88.2,14.2,158.6,14.3,159.3c0.2,1.1,1.2,1.9,2.3,1.9c0.2,0,0.3,0,0.5,0c1.3-0.3,2.1-1.5,1.9-2.8
			c-0.1-0.7-14.1-70.7-14.2-158.4c-0.1-86.5,50.3-150.3,122.6-155.1l21.4-1.4c73.5,0,133.3,59.8,133.3,133.3v53.7
			c-7.7,3.5-14.9,7.9-21.4,13.1v-64.4c0-61.7-50.2-111.8-112-111.8h0l-14,1c-71.8,2.6-104.7,66.7-104.8,125.1
			c-0.2,100.8,16.5,185.3,16.7,186.1c0.2,1.1,1.2,1.9,2.3,1.9c0.2,0,0.3,0,0.5,0c1.3-0.3,2.1-1.5,1.9-2.8
			c-0.2-0.8-16.8-84.8-16.6-185.2c0.1-56.2,31.5-117.9,100.3-120.4l13.9-1c59.1,0,107.1,48,107.1,107.1v68.7
			c-10,9.3-18.1,20.5-23.4,33.3c-0.7-22.5-1.8-61.7-2.8-107.5c-0.9-43.7-37.2-79.3-80.8-79.3c-0.8,0-85.7-1.4-90.5,87.9
			c-4.7,87.4,22,208.9,22.3,210.1c0.2,1.1,1.2,1.9,2.3,1.9c0.2,0,0.3,0,0.5-0.1c1.3-0.3,2.1-1.6,1.8-2.8
			c-0.3-1.2-26.8-122.1-22.2-208.8c4.6-84.7,82.3-83.6,85.7-83.4c41.2,0,75.3,33.5,76.2,74.6c1.2,56.6,2.6,103.2,3.2,120.5
			c0,0,0,0,0,0.1c-2,7.7-3.2,15.8-3.2,24.1c0,53.1,43.2,96.4,96.4,96.4s96.4-43.2,96.4-96.4
			C2205.6,1398.7,2172.6,1359.8,2128.7,1350.7z M2109.3,1536.8c-50.5,0-91.6-41.1-91.6-91.6c0-50.5,41.1-91.6,91.6-91.6
			c50.5,0,91.6,41.1,91.6,91.6C2200.9,1495.7,2159.8,1536.8,2109.3,1536.8z"/>
		<path fill="#FFFFFF" d="M2138.2,1438.4h-5.6v-15.9c0-12.9-10.5-23.4-23.4-23.4c-12.9,0-23.4,10.5-23.4,23.4v15.9h-5.6
			c-1.3,0-2.4,1.1-2.4,2.4v50.8c0,1.3,1.1,2.4,2.4,2.4h57.9c1.3,0,2.4-1.1,2.4-2.4v-50.8C2140.6,1439.4,2139.5,1438.4,2138.2,1438.4
			z M2090.6,1422.5c0-10.3,8.4-18.6,18.6-18.6c10.3,0,18.6,8.4,18.6,18.6v15.5h-37.3V1422.5z M2135.8,1489.1h-53.2v-46h53.2V1489.1z
			"/>
	</g>
	<g>
		<path fill="#FFFFFF" d="M1972.1,500.7c0.7-15.1-4.6-29.4-14.9-40.3c-10.3-10.8-24.2-16.7-39.5-16.7c-0.5,0-53.7,0.6-60.7,53.8
			c-9.8,133.8,22.4,221.5,22.8,222.3c0.4,1,1.3,1.5,2.2,1.5c0.3,0,0.6,0,0.8-0.2c1.2-0.5,1.9-1.8,1.4-3.1
			c-0.3-0.9-32.2-87.5-22.5-220.2c6.4-48.8,53.9-49.5,56.4-49.5c13.6,0,26.3,5.4,35.6,15.3c9.5,9.9,14.3,23,13.6,36.7
			c-2.3,46.6,0,120.7,23.4,208.8c0.3,1.3,1.6,2,2.9,1.7c1.3-0.3,2-1.6,1.7-2.9C1972.1,620.6,1969.9,547,1972.1,500.7z"/>
		<path fill="#FFFFFF" d="M1947.7,501.9c0.7-8.4-2.1-16.8-7.8-23.1c-5.7-6.2-13.7-9.7-22.4-9.7c0,0-0.1,0-0.1,0
			c-39.2,6.1-37.1,41.2-33.2,104.7c0.4,5.9,0.7,12,1.1,18.4c4.7,82.8,23.7,127.3,23.9,127.7c0.4,0.9,1.3,1.4,2.2,1.4
			c0.3,0,0.6-0.1,1-0.2c1.2-0.5,1.8-1.9,1.2-3.1c-0.2-0.4-18.9-44.3-23.6-126.1c-0.4-6.4-0.7-12.5-1.1-18.4
			c-3.8-62.7-5.7-94.2,28.8-99.7c7.2,0,13.8,2.9,18.6,8.2c4.8,5.2,7.2,12.3,6.6,19.4c-4.5,52-7.5,148.9,22.6,213.7
			c0.5,1.2,2,1.7,3.2,1.2c1.2-0.6,1.7-2,1.2-3.2C1940.2,649.4,1943.2,553.4,1947.7,501.9z"/>
		<path fill="#FFFFFF" d="M1917.1,494.1c0.1-1.3-0.9-2.5-2.2-2.6c-1.3-0.1-2.5,0.9-2.6,2.2c-10.4,134.4,25,228.4,25.3,229.3
			c0.4,0.9,1.3,1.5,2.2,1.5c0.3,0,0.6-0.1,0.9-0.2c1.2-0.5,1.8-1.8,1.4-3.1C1941.8,720.4,1906.7,627.4,1917.1,494.1z"/>
		<path fill="#FFFFFF" d="M2109.7,546.4v-52.7c0-105.9-86.1-192-192-192c-111.5,0-202.3,90.7-202.3,202.3v98.4
			c0,1.3,1.1,2.4,2.4,2.4s2.4-1.1,2.4-2.4V504c0-108.9,88.6-197.5,197.5-197.5c103.2,0,187.2,84,187.2,187.2v52
			c-4.8-0.7-9.7-1.2-14.7-1.2c-2.8,0-5.6,0.2-8.3,0.4V498c0-90.5-73.7-164.2-164.2-164.2h-3c-92.2,0-167.2,75-167.2,167.2v150.5
			c0,1.3,1.1,2.4,2.4,2.4s2.4-1.1,2.4-2.4V501c0-89.6,72.9-162.4,162.4-162.4h3c87.9,0,159.5,71.5,159.5,159.5v47.4
			c-7.4,1-14.6,2.9-21.4,5.5v-51.7c0-76.1-61.9-138-138.2-138l-21.5,1.4c-74.9,5-127.1,70.7-127.1,159.8
			c0.1,88.2,14.2,158.6,14.3,159.3c0.2,1.1,1.2,1.9,2.3,1.9c0.2,0,0.3,0,0.5,0c1.3-0.3,2.1-1.5,1.9-2.8
			c-0.1-0.7-14.1-70.7-14.2-158.4c-0.1-86.5,50.3-150.3,122.6-155.1l21.4-1.4c73.5,0,133.3,59.8,133.3,133.3v53.7
			c-7.7,3.5-14.9,7.9-21.4,13.1v-64.4c0-61.7-50.2-111.8-112-111.8h0l-14,1c-71.8,2.6-104.7,66.7-104.8,125.1
			c-0.2,100.8,16.5,185.3,16.7,186.1c0.2,1.1,1.2,1.9,2.3,1.9c0.2,0,0.3,0,0.5,0c1.3-0.3,2.1-1.5,1.9-2.8
			c-0.2-0.8-16.8-84.8-16.6-185.2c0.1-56.2,31.5-117.9,100.3-120.4l13.9-1c59.1,0,107.1,48,107.1,107.1v68.7
			c-10,9.3-18.1,20.5-23.4,33.3c-0.7-22.5-1.8-61.7-2.8-107.5c-0.9-43.7-37.2-79.3-80.8-79.3c-0.8,0-85.7-1.4-90.5,87.9
			c-4.7,87.4,22,208.9,22.3,210.1c0.2,1.1,1.2,1.9,2.3,1.9c0.2,0,0.3,0,0.5-0.1c1.3-0.3,2.1-1.6,1.8-2.8
			c-0.3-1.2-26.8-122.1-22.2-208.8c4.6-84.7,82.3-83.5,85.7-83.4c41.2,0,75.3,33.5,76.2,74.6c1.2,56.7,2.6,103.2,3.2,120.5
			c0,0,0,0,0,0.1c-2,7.7-3.2,15.8-3.2,24.1c0,53.1,43.2,96.4,96.4,96.4c53.1,0,96.4-43.2,96.4-96.4
			C2186.6,594.3,2153.5,555.4,2109.7,546.4z M2090.2,732.5c-50.5,0-91.6-41.1-91.6-91.6c0-50.5,41.1-91.6,91.6-91.6
			c50.5,0,91.6,41.1,91.6,91.6C2181.8,691.4,2140.7,732.5,2090.2,732.5z"/>
		<path fill="#FFFFFF" d="M2121.2,631.7h-49.4v-21.6c0-11.2,9.1-20.4,20.4-20.4s20.4,9.1,20.4,20.4v4.3c0,1.3,1.1,2.4,2.4,2.4
			s2.4-1.1,2.4-2.4v-4.3c0-13.9-11.3-25.1-25.1-25.1c-13.9,0-25.1,11.3-25.1,25.1v21.6h-7.7c-1.3,0-2.4,1.1-2.4,2.4v53
			c0,1.3,1.1,2.4,2.4,2.4h61.9c1.3,0,2.4-1.1,2.4-2.4v-53C2123.5,632.8,2122.5,631.7,2121.2,631.7z M2118.8,684.6h-57.1v-48.2h57.1
			V684.6z"/>
	</g>
	<g>
		<path fill="#FFFFFF" d="M1223,1318.7H1213v4.8h417.7v-4.8h-13.8c-0.7-105.3-86.5-190.8-191.9-190.8
			C1317.2,1127.9,1229,1212.5,1223,1318.7z M1447.1,1305c-5.7-6.2-13.7-9.7-22.4-9.7c0,0-0.1,0-0.1,0c-16.6,2.6-25.7,10.5-30.5,23.4
			H1370c9.2-43.3,53-44,55.3-44c13.6,0,26.3,5.4,35.6,15.3c7.6,8,12.2,18,13.3,28.7h-20.2C1453,1313.6,1450.6,1308.9,1447.1,1305z
			 M1449.2,1318.7h-50c4.4-10.3,12.3-16.5,25.7-18.6c7.2,0,13.8,2.9,18.7,8.2C1446.3,1311.2,1448.2,1314.8,1449.2,1318.7z
			 M1464.4,1286.6c-10.3-10.8-24.2-16.7-39.5-16.7c-0.5,0-50.2,0.6-59.8,48.8h-24.5c11.2-72,81.1-71.1,84.3-71
			c39.9,0,73.1,31.5,75.9,71h-21.7C1477.9,1306.7,1472.9,1295.5,1464.4,1286.6z M1425,1242.9c-0.9,0-77.6-1.2-89.2,75.7h-23.2
			c7.7-48.7,39.1-94.8,98.4-96.9l13.9-1c56,0,101.9,43.2,106.6,98h-26C1502.8,1276.6,1467.4,1242.9,1425,1242.9z M1424.7,1216
			C1424.7,1216,1424.7,1216,1424.7,1216l-14,1c-62.3,2.3-95.2,50.8-103,101.7h-24.7c10.2-70.9,56.8-120.9,120.5-125.1l21.4-1.4
			c71.2,0,129.5,56.2,133,126.5h-21.6C1531.7,1261.3,1483.5,1216,1424.7,1216z M1424.8,1187.4l-21.5,1.4
			c-66.2,4.4-114.7,56.3-125,129.8h-18.4c4.5-85.6,75.4-153.9,162.1-153.9h3c86,0,156.3,68.5,159.3,153.9h-21.5
			C1559.2,1245.7,1498.7,1187.4,1424.8,1187.4z M1424.9,1132.7c102.8,0,186.5,83.3,187.2,186h-23.2c-3-88-75.4-158.6-164-158.6h-3
			c-89.3,0-162.4,70.4-166.9,158.6h-27.3C1233.8,1215.1,1319.9,1132.7,1424.9,1132.7z"/>
		<polygon fill="#FFFFFF" points="1572.1,1121.7 1640.5,1121.7 1640.5,1187.4 1645.2,1187.4 1645.2,1117 1572.1,1117 		"/>
		<polygon fill="#FFFFFF" points="1640.5,1525.8 1572.1,1525.8 1572.1,1530.6 1645.2,1530.6 1645.2,1460.2 1640.5,1460.2 		"/>
		<polygon fill="#FFFFFF" points="1201.6,1121.7 1270,1121.7 1270,1117 1196.8,1117 1196.8,1187.4 1201.6,1187.4 		"/>
		<polygon fill="#FFFFFF" points="1201.6,1460.2 1196.8,1460.2 1196.8,1530.6 1270,1530.6 1270,1525.8 1201.6,1525.8 		"/>
	</g>
</g>
</svg>
